<svg xmlns="http://www.w3.org/2000/svg" width="199.789" height="65" viewBox="0 0 199.789 65"><g fill-rule="evenodd" clip-rule="evenodd"><path fill="#150186" d="M156.634 21.911c16.321 0 29.632 5.3 29.632 11.799 0 6.498-13.312 11.799-29.632 11.799-16.321 0-29.632-5.3-29.632-11.799s13.311-11.799 29.632-11.799z"/><path fill="#FFF" d="M156.685 23.972c15.537 0 28.209 4.374 28.209 9.738 0 5.363-12.672 9.738-28.209 9.738-15.537 0-28.209-4.375-28.209-9.738 0-5.364 12.671-9.738 28.209-9.738zm-.051-.928c15.901 0 28.869 4.791 28.869 10.665 0 5.874-12.968 10.665-28.869 10.665s-28.87-4.791-28.87-10.665c0-5.874 12.969-10.665 28.87-10.665z"/><path fill="#FFF" d="M165.391 29.127c-.465 0-.852.417-.895.894-.044.477.209.691.644.691.436 0 .808-.478.848-.915.042-.467-.161-.67-.597-.67zm-2.945 7.283c-.016.486.327.836.772.815 1.531-.071 2.207-1.099 2.25-1.59.008-.09-.123-.157-.188-.157-.17 0-.248.123-.645.631-.176.226-.851.479-.751.028.268-1.213 1.192-3.481 1.653-4.712l-1.301-.005c-.01.336-1.752 3.919-1.79 4.99zm-9.381.42c1.124-3.08 2.301-4.72 2.576-4.72.079 0 .12.041.121.103.03.803 1.308.864 1.384-.096.034-.425-.191-.91-.755-.91-.822 0-1.67 1.259-2.091 2.01l-.024-.025c.187-.55.172-.853.197-1.315.019-.35-.145-.632-.577-.632-.629 0-1.125.388-1.603.988-.309.388-.522.675-.53.825-.005.088.058.138.137.138.131 0 .327-.25.622-.554.359-.37.685-.643.759-.319.052.306-.193.81-1.507 4.49-.116.308 1.062.437 1.291.017zm5.689.173c1.124-3.08 2.3-4.72 2.576-4.72.078 0 .119.041.121.103.03.803 1.308.864 1.384-.096.034-.425-.192-.91-.755-.91-.822 0-1.67 1.259-2.09 2.01l-.025-.025c.188-.55.172-.853.197-1.315.019-.35-.145-.632-.577-.632-.63 0-1.125.388-1.603.988-.309.388-.521.675-.53.825-.005.088.058.138.136.138.131 0 .327-.25.622-.554.359-.37.686-.643.76-.319.051.306-.193.81-1.507 4.49-.116.308 1.062.437 1.291.017zm15.123-.115c1.124-3.08 2.3-4.72 2.576-4.72.078 0 .119.041.121.103.03.803 1.308.864 1.384-.096.034-.425-.191-.91-.756-.91-.822 0-1.669 1.259-2.09 2.01l-.025-.025c.187-.55.172-.853.197-1.315.019-.35-.144-.632-.577-.632-.629 0-1.125.388-1.603.988-.309.388-.521.675-.53.825-.005.088.058.138.136.138.131 0 .327-.25.622-.554.359-.37.685-.643.759-.319.052.306-.193.81-1.507 4.49-.114.308 1.064.437 1.293.017zm-32.212-7.442c-3.614.772-5.042 6.845-1.997 7.232.374.04 1.764-.182 2.681-.945.421-.494.75-.173.203.358-2.685 2.13-6.357 1.636-6.277-1.847.079-3.415 3.731-5.69 7.119-5.511.979.051 1.958.527 1.866 1.269-.151.912-1.617 1.067-1.79.081-.069-.407.454-.253.165-.517-.46-.304-1.23-.278-1.97-.12z"/><path fill="#FFF" d="M149.209 31.305c-.266.054-.161.204-.3.478-.225-.291-.73-.44-.993-.433-3.753.098-5.512 6.053-2.913 6.089 1.008.014 1.617-.555 2.182-1.261.035.019.108-.014.093.189-.126.885.232 1.163.63 1.105 2.157-.55 2.613-2.864 1.504-1.511-.282.417-.507.348-.645.309-.293-.082 1.348-4.145 1.424-4.418.224-.7-.554-.633-.982-.547zm-1.03.552c.277-.022.4.201.387.403-.109 1.759-2.711 5.581-3.414 3.521-.328-.962 1.468-3.801 3.027-3.924zm17.912 3.289c-.041 1.002.695 2.126 1.965 2.138 1.937.018 2.848-1.216 3.046-1.455.2-.253-.261-.308-.395-.18-.701.563-.878.903-1.97.896-.984-.006-1.186-.997-.946-1.801 1.418-.036 3.962-.652 4.188-2.183.118-.803-.749-1.355-1.562-1.349-2.717.019-4.247 1.994-4.326 3.934zm3.773-1.4c-.455.358-1.525.492-1.997.492.177-.986 1.269-2.621 2.06-2.623 1.193-.004.677 1.549-.063 2.131z"/></g><path fill-rule="evenodd" clip-rule="evenodd" fill="#5F5F00" d="M120.624 48.216c0-1.466-1.638-1.293-1.638-1.293h-11.209c-5.777-.086-6.122-7.674-6.122-7.674V2.95c0-3.794-2.931-2.845-2.931-2.845s-29.3.242-31.086.143c-1.785-.099-1.865.456-1.865.456s-.198.119-.119.893c.079.774 2.203.664 2.203.664 6.984-.345 16.641.69 16.641.69 7.415.69 6.984 6.898 6.984 6.898l-.17 14.722c-8.975-4.437-24.161-7.354-41.383-7.354C22.354 17.217 0 24.694 0 33.917c0 9.223 22.354 16.701 49.929 16.701 17.084 0 32.164-2.87 41.166-7.248l-.044 3.811c0 1.379 2.328 1.897 2.328 1.897h26.211c1.207.001 1.034-.862 1.034-.862zm-67.993-.586c-23.067 0-41.766-6.307-41.766-14.086s18.699-14.086 41.766-14.086c17.443 0 32.389 3.607 38.639 8.729l-.125 10.815c-6.323 5.069-21.186 8.628-38.514 8.628z"/><path d="M.343 62.413v-.23h.251c.219 0 .387-.039.504-.116a.689.689 0 0 0 .259-.316c.033-.088.05-.351.05-.789v-5.583c0-.434-.02-.706-.061-.814a.595.595 0 0 0-.248-.285c-.124-.081-.292-.122-.504-.122H.343v-.23h3.372c.9 0 1.624.138 2.172.413.67.338 1.179.849 1.525 1.533.346.684.519 1.458.519 2.322 0 .597-.085 1.146-.256 1.649-.17.503-.391.918-.661 1.245-.27.328-.582.59-.936.789-.354.198-.786.351-1.297.46-.226.05-.581.075-1.066.075H.343zm2.874-8.004v6.618c0 .35.015.565.044.644.03.079.08.14.15.181.1.063.244.094.433.094.618 0 1.09-.238 1.416-.713.444-.642.666-1.639.666-2.99 0-1.088-.152-1.958-.455-2.608-.241-.509-.55-.855-.927-1.038-.267-.13-.709-.192-1.327-.188zm7.598 2.155v4.635c0 .417.043.684.129.8.086.116.254.182.504.199v.216H8.637v-.216c.231-.008.402-.084.514-.228.074-.097.112-.354.112-.771v-3.413c0-.414-.043-.679-.128-.794-.086-.115-.251-.181-.497-.198v-.23h2.177zm-.776-2.831c.241 0 .445.095.611.285.167.19.25.418.25.685a.983.983 0 0 1-.253.682.788.788 0 0 1-.609.281.784.784 0 0 1-.606-.281.99.99 0 0 1-.25-.682c0-.267.083-.495.25-.685a.782.782 0 0 1 .607-.285zm5.194 2.68l.086 1.998h-.194c-.225-.597-.458-1.005-.7-1.224-.241-.219-.482-.328-.722-.328a.51.51 0 0 0-.387.172.552.552 0 0 0-.049.722c.118.171.449.464.993.878.544.415.902.767 1.074 1.057.172.29.258.614.258.972 0 .325-.072.644-.217.957a1.592 1.592 0 0 1-1.483.969c-.248 0-.579-.087-.994-.262a.75.75 0 0 0-.228-.069c-.122 0-.224.103-.305.309h-.187l-.086-2.105h.194c.166.553.395.968.685 1.245.29.277.565.415.823.415a.564.564 0 0 0 .435-.184.637.637 0 0 0 .169-.447c0-.2-.056-.373-.167-.519-.111-.146-.359-.367-.745-.663-.567-.442-.934-.779-1.1-1.013a1.9 1.9 0 0 1-.367-1.132c0-.45.137-.858.412-1.222.275-.365.673-.547 1.193-.547.281 0 .552.078.814.235a.49.49 0 0 0 .244.095.26.26 0 0 0 .161-.046c.041-.031.105-.118.194-.263h.196zm3.205-1.99v2.141h1.236v.611h-1.236v3.615c0 .338.014.557.042.655a.473.473 0 0 0 .148.238c.071.061.136.091.195.091.241 0 .47-.206.685-.618l.167.137c-.3.799-.787 1.199-1.461 1.199-.33 0-.608-.103-.836-.31a1.378 1.378 0 0 1-.436-.692c-.037-.142-.056-.526-.056-1.152v-3.163h-.675v-.218A7.49 7.49 0 0 0 17.4 55.79a7.17 7.17 0 0 0 .856-1.367h.182zm3.882 2.141l.002 1.326c.345-.604.647-1.004.907-1.202.26-.198.51-.297.751-.297.205 0 .369.072.491.216.123.144.184.348.184.611 0 .28-.06.497-.181.652-.121.154-.266.232-.437.232a.7.7 0 0 1-.509-.213 3.227 3.227 0 0 0-.255-.238.221.221 0 0 0-.127-.038.435.435 0 0 0-.303.137c-.151.141-.265.343-.342.605a4.753 4.753 0 0 0-.176 1.336l.002 1.345.001.349c0 .241.013.395.039.463.044.114.11.198.197.251.087.053.233.086.44.098v.216H20.2v-.216c.225-.021.377-.092.456-.212.079-.12.119-.438.119-.952V57.8c0-.333-.015-.546-.044-.637a.503.503 0 0 0-.16-.256c-.07-.054-.193-.092-.37-.112v-.23h2.119zm4.92 0v4.635c0 .417.043.684.129.8.086.116.254.182.504.199v.216h-2.809v-.216c.231-.008.402-.084.514-.228.074-.097.112-.354.112-.771v-3.413c0-.414-.043-.679-.128-.794-.086-.115-.251-.181-.497-.198v-.23h2.175zm-.775-2.831c.241 0 .445.095.611.285.167.19.25.418.25.685a.983.983 0 0 1-.253.682.788.788 0 0 1-.609.281.784.784 0 0 1-.606-.281.99.99 0 0 1-.25-.682c0-.267.083-.495.25-.685a.78.78 0 0 1 .607-.285zm3.921.194v3.228c.437-.509.914-.763 1.432-.763.355 0 .69.118 1.005.353.315.235.561.57.738 1.003.178.433.267.933.267 1.5 0 .637-.113 1.217-.339 1.738-.226.521-.527.918-.905 1.191a2.152 2.152 0 0 1-1.293.409c-.281 0-.531-.05-.75-.149s-.433-.26-.644-.484l-.86.632h-.189v-7.444c0-.339-.013-.548-.039-.627a.486.486 0 0 0-.175-.26c-.08-.056-.214-.089-.404-.097v-.23h2.156zm0 3.783v2.604c0 .53.011.868.033 1.014.037.246.126.445.266.598a.7.7 0 0 0 .538.228c.188 0 .35-.061.485-.182s.248-.361.338-.72c.09-.359.136-1.006.136-1.94 0-.897-.1-1.513-.299-1.847-.144-.242-.338-.363-.582-.363-.318.001-.623.204-.915.608zm9.323-1.146v4.577c0 .451.037.733.111.844.074.112.224.182.45.212v.216h-2.113v-.782c-.247.334-.495.576-.742.728a1.562 1.562 0 0 1-.831.227c-.292 0-.551-.101-.778-.303a1.493 1.493 0 0 1-.457-.709c-.078-.271-.116-.744-.116-1.419v-2.319c0-.443-.036-.72-.108-.828-.072-.109-.223-.18-.452-.213v-.23h2.113v3.997c0 .417.018.686.053.807s.09.213.166.275a.398.398 0 0 0 .263.094c.133 0 .253-.04.36-.119.148-.108.325-.327.531-.657v-3.126c0-.443-.036-.72-.108-.828-.072-.109-.223-.18-.452-.213v-.23h2.11zm3.381-2.141v2.141h1.236v.611H43.09v3.615c0 .338.014.557.042.655a.473.473 0 0 0 .148.238c.071.061.136.091.195.091.241 0 .47-.206.685-.618l.167.137c-.3.799-.787 1.199-1.461 1.199-.33 0-.608-.103-.836-.31s-.373-.437-.436-.692c-.037-.142-.056-.526-.056-1.152v-3.163h-.675v-.218a7.49 7.49 0 0 0 1.189-1.167 7.17 7.17 0 0 0 .856-1.367h.182zm4.184 1.969c.452 0 .872.131 1.261.394.389.262.684.635.886 1.119.202.483.303 1.013.303 1.588 0 .829-.187 1.523-.561 2.081-.452.675-1.076 1.012-1.872 1.012-.781 0-1.383-.308-1.805-.925-.422-.617-.633-1.331-.633-2.144 0-.838.216-1.568.647-2.191.43-.623 1.022-.934 1.774-.934zm.025.445c-.19 0-.354.08-.49.241-.136.16-.226.477-.269.95s-.064 1.13-.064 1.971c0 .446.026.862.078 1.25.041.296.129.521.263.675.134.154.287.231.459.231a.593.593 0 0 0 .42-.156c.146-.142.243-.339.291-.594.075-.396.112-1.195.112-2.399 0-.708-.035-1.194-.106-1.459-.071-.265-.175-.457-.314-.578a.54.54 0 0 0-.38-.132zm5.361-.273l.002 1.326c.345-.604.647-1.004.907-1.202.26-.198.51-.297.751-.297.205 0 .369.072.491.216.123.144.184.348.184.611 0 .28-.06.497-.181.652-.121.154-.266.232-.437.232a.7.7 0 0 1-.509-.213 3.227 3.227 0 0 0-.255-.238.221.221 0 0 0-.127-.038.435.435 0 0 0-.303.137c-.151.141-.265.343-.342.605a4.753 4.753 0 0 0-.176 1.336l.002 1.345.001.349c0 .241.013.395.039.463.044.114.11.198.197.251.087.053.233.086.44.098v.216H50.54v-.216c.225-.021.377-.092.456-.212.079-.12.119-.438.119-.952V57.8c0-.333-.015-.546-.044-.637a.503.503 0 0 0-.16-.256c-.07-.054-.193-.092-.37-.112v-.23h2.119zm13.205-3.003V56.5h-.215c-.162-.768-.464-1.356-.906-1.765-.442-.409-.943-.613-1.503-.613-.468 0-.897.152-1.287.457-.39.305-.676.703-.856 1.196-.232.63-.348 1.331-.348 2.103 0 .76.085 1.451.254 2.075.169.624.434 1.095.795 1.415.361.319.828.479 1.403.479.471 0 .903-.117 1.295-.35.392-.234.805-.636 1.24-1.208v.732c-.42.497-.857.857-1.312 1.08-.455.223-.986.335-1.594.335-.799 0-1.509-.182-2.13-.544a3.623 3.623 0 0 1-1.436-1.565 4.826 4.826 0 0 1-.505-2.172c0-.809.187-1.577.561-2.303.374-.726.879-1.289 1.514-1.69a3.74 3.74 0 0 1 2.025-.601c.527 0 1.083.129 1.669.386.339.15.554.224.646.224a.4.4 0 0 0 .307-.146c.087-.098.143-.252.169-.464h.214zm3.434 2.658c.448 0 .864.131 1.25.394.385.262.678.635.878 1.119.2.483.3 1.013.3 1.588 0 .829-.185 1.523-.556 2.081-.448.675-1.066 1.012-1.855 1.012-.775 0-1.371-.308-1.789-.925-.418-.617-.628-1.331-.628-2.144 0-.838.214-1.568.641-2.191.428-.622 1.014-.934 1.759-.934zm.025.446c-.187 0-.347.08-.481.241s-.222.477-.264.95c-.042.473-.063 1.13-.063 1.971 0 .446.026.862.077 1.25.04.296.126.521.258.675.132.154.282.231.451.231a.576.576 0 0 0 .412-.156c.143-.142.238-.339.286-.594.073-.396.11-1.195.11-2.399 0-.708-.035-1.194-.105-1.459-.07-.265-.172-.457-.308-.578a.525.525 0 0 0-.373-.132zm5.343-.273l.002 1.326c.342-.604.642-1.004.899-1.202.257-.198.506-.297.745-.297.205 0 .369.072.491.216.123.144.184.348.184.611 0 .28-.06.497-.179.652-.119.154-.263.232-.432.232a.693.693 0 0 1-.505-.213 3.506 3.506 0 0 0-.252-.238.22.22 0 0 0-.126-.038.435.435 0 0 0-.303.137c-.151.141-.265.343-.342.605a4.753 4.753 0 0 0-.176 1.336l.002 1.345.001.349c0 .241.013.395.039.463.044.114.11.198.197.251.087.053.233.086.44.098v.216h-2.795v-.216c.225-.021.377-.092.456-.212.079-.12.119-.438.119-.952v-3.233c0-.333-.015-.546-.044-.637a.503.503 0 0 0-.16-.256c-.07-.054-.193-.092-.37-.112v-.23h2.109zm4.87 5.252v2.178c0 .301.021.505.063.614a.45.45 0 0 0 .195.238c.088.05.26.075.517.075v.23h-2.939v-.23c.228-.008.397-.081.508-.219.074-.096.11-.344.11-.744v-6.172c0-.414-.042-.679-.127-.794-.085-.115-.248-.181-.491-.198v-.23h2.163v.769c.181-.3.365-.517.552-.651.269-.194.562-.291.879-.291.379 0 .725.136 1.036.406.311.271.548.645.71 1.122.162.477.243.991.243 1.541a5 5 0 0 1-.251 1.622c-.168.49-.411.863-.729 1.119a1.658 1.658 0 0 1-1.064.384 1.57 1.57 0 0 1-.796-.213c-.183-.108-.377-.293-.579-.556zm0-.633c.318.508.658.762 1.021.762.2 0 .364-.119.494-.356.192-.35.289-1.016.289-2 0-1.008-.105-1.698-.316-2.068-.141-.246-.329-.369-.566-.369-.374 0-.681.304-.921.912v3.119zm6.729-4.792c.448 0 .864.131 1.25.394.385.262.678.635.878 1.119.2.483.3 1.013.3 1.588 0 .829-.185 1.523-.556 2.081-.448.675-1.066 1.012-1.855 1.012-.775 0-1.371-.308-1.789-.925-.418-.617-.628-1.331-.628-2.144 0-.838.214-1.568.641-2.191.428-.622 1.014-.934 1.759-.934zm.025.446a.606.606 0 0 0-.481.241c-.134.16-.222.477-.264.95-.042.473-.063 1.13-.063 1.971 0 .446.026.862.077 1.25.04.296.126.521.258.675.132.154.282.231.451.231a.576.576 0 0 0 .412-.156c.143-.142.238-.339.286-.594.073-.396.11-1.195.11-2.399 0-.708-.035-1.194-.105-1.459-.07-.265-.172-.457-.308-.578a.525.525 0 0 0-.373-.132zm5.343-.273l.002 1.326c.342-.604.642-1.004.899-1.202.257-.198.506-.297.745-.297.205 0 .369.072.491.216.123.144.184.348.184.611 0 .28-.06.497-.179.652-.119.154-.263.232-.432.232a.693.693 0 0 1-.505-.213 3.506 3.506 0 0 0-.252-.238.22.22 0 0 0-.126-.038.435.435 0 0 0-.303.137c-.151.141-.265.343-.342.605a4.753 4.753 0 0 0-.176 1.336l.002 1.345.001.349c0 .241.013.395.039.463.044.114.11.198.197.251.087.053.233.086.44.098v.216h-2.795v-.216c.225-.021.377-.092.456-.212.079-.12.119-.438.119-.952v-3.233c0-.333-.015-.546-.044-.637a.503.503 0 0 0-.16-.256c-.07-.054-.193-.092-.37-.112v-.23h2.109zm5.725 4.987c-.63.628-1.195.941-1.696.941a.942.942 0 0 1-.735-.328 1.19 1.19 0 0 1-.293-.822c0-.446.169-.847.508-1.204.339-.356 1.077-.831 2.215-1.422v-.587c0-.442-.021-.72-.063-.834a.643.643 0 0 0-.24-.3.663.663 0 0 0-.397-.128.933.933 0 0 0-.59.181c-.096.075-.144.163-.144.263 0 .088.052.196.155.325.14.179.21.352.21.519a.735.735 0 0 1-.202.522.687.687 0 0 1-.527.216.786.786 0 0 1-.583-.238.764.764 0 0 1-.235-.556c0-.3.105-.587.314-.86.21-.273.502-.482.877-.628a3.196 3.196 0 0 1 1.169-.219c.489 0 .876.118 1.161.353.285.236.47.491.554.766.051.175.077.577.077 1.207v2.27c0 .267.009.435.028.503.018.069.046.12.083.153.037.033.079.05.127.05.096 0 .194-.077.294-.233l.166.151c-.184.308-.374.531-.571.67-.197.139-.42.209-.67.209-.294 0-.524-.078-.69-.234-.164-.155-.266-.391-.302-.706zm0-.46v-1.955c-.445.296-.775.613-.992.95a1.26 1.26 0 0 0-.215.681c0 .192.061.361.182.506.092.113.22.169.386.169.183.001.396-.117.639-.351zm4.851-6.668v2.141h1.229v.611h-1.229v3.615c0 .338.014.557.042.655a.478.478 0 0 0 .147.238c.07.061.135.091.194.091.24 0 .467-.206.681-.618l.166.137c-.298.799-.783 1.199-1.453 1.199-.328 0-.605-.103-.831-.31a1.381 1.381 0 0 1-.434-.692c-.037-.142-.055-.526-.055-1.152v-3.163h-.675v-.218c.464-.37.859-.759 1.185-1.167.326-.408.61-.863.853-1.367h.18zm3.73 2.141v4.635c0 .417.043.684.129.8s.254.182.504.199v.216h-2.795v-.216c.228-.008.397-.084.508-.228.074-.097.11-.354.11-.771v-3.413c0-.414-.042-.679-.127-.794-.085-.115-.248-.181-.491-.198v-.23h2.162zm-.768-2.831c.239 0 .441.095.606.285.165.19.248.418.248.685a.99.99 0 0 1-.251.682c-.167.188-.368.281-.603.281s-.435-.094-.601-.281a.998.998 0 0 1-.248-.682c0-.267.083-.495.248-.685a.77.77 0 0 1 .601-.285zm4.335 2.658c.448 0 .864.131 1.25.394.385.262.678.635.878 1.119.2.483.3 1.013.3 1.588 0 .829-.185 1.523-.556 2.081-.448.675-1.066 1.012-1.855 1.012-.775 0-1.371-.308-1.79-.925-.418-.617-.628-1.331-.628-2.144 0-.838.214-1.568.641-2.191.429-.622 1.015-.934 1.76-.934zm.025.446c-.187 0-.347.08-.481.241s-.222.477-.264.95c-.042.473-.063 1.13-.063 1.971 0 .446.026.862.077 1.25.04.296.126.521.258.675.132.154.282.231.451.231a.576.576 0 0 0 .412-.156c.143-.142.238-.339.286-.594.073-.396.11-1.195.11-2.399 0-.708-.035-1.194-.105-1.459-.07-.265-.172-.457-.308-.578a.525.525 0 0 0-.373-.132zm5.3-.273v.754c.265-.323.519-.559.762-.706.243-.147.504-.221.784-.221.335 0 .613.105.834.316.221.211.368.472.442.785.059.238.088.695.088 1.37v2.278c0 .453.036.735.108.846.072.111.223.181.452.211v.216h-2.615v-.216a.537.537 0 0 0 .421-.277c.059-.105.089-.365.089-.78v-2.601c0-.479-.017-.782-.05-.907a.56.56 0 0 0-.169-.291.39.39 0 0 0-.262-.103c-.317 0-.612.254-.884.762v3.14c0 .44.036.719.108.836.072.117.206.191.402.22v.216h-2.615v-.216c.218-.025.374-.105.466-.239.063-.092.094-.365.094-.817v-3.305c0-.443-.036-.72-.108-.828-.072-.109-.223-.18-.452-.213v-.23h2.105zm22.532-2.637l3.733 5.269v-3.652c0-.51-.065-.856-.195-1.035-.178-.243-.477-.36-.897-.351v-.23h2.493v.23c-.319.046-.534.106-.643.179-.11.073-.195.192-.256.358s-.092.449-.092.85v7.063h-.188l-5.115-7.078v5.411c0 .487.099.816.298.987.198.171.426.256.681.256h.178v.23h-2.673v-.23c.416-.004.705-.1.869-.287.163-.187.245-.506.245-.956v-5.994l-.161-.224c-.159-.226-.3-.375-.423-.446-.122-.071-.298-.111-.528-.119v-.23h2.674zm10.191 5.353h-2.86c.033.775.217 1.388.552 1.838.256.346.565.519.925.519.223 0 .426-.07.608-.209.182-.14.377-.391.585-.753l.189.137c-.282.646-.594 1.103-.935 1.372a1.863 1.863 0 0 1-1.186.403c-.772 0-1.357-.333-1.754-1-.319-.537-.479-1.204-.479-2 0-.975.235-1.751.704-2.328.47-.577 1.02-.866 1.651-.866.527 0 .985.243 1.373.728.389.484.598 1.204.627 2.159zm-1.365-.417c0-.671-.033-1.131-.098-1.381s-.166-.44-.304-.569a.43.43 0 0 0-.312-.112c-.193 0-.351.106-.474.319-.219.371-.329.879-.329 1.525v.219h1.517zm7.17 3.722l-1.426-4.291-1.396 4.291h-.288l-1.386-4.24c-.208-.646-.384-1.068-.528-1.264a.777.777 0 0 0-.423-.288v-.23h2.625v.23c-.178 0-.3.029-.367.088a.259.259 0 0 0-.1.2c0 .071.059.284.178.639l.763 2.282.733-2.279-.051-.154c-.111-.313-.209-.512-.292-.597s-.212-.145-.386-.178v-.23h2.661v.23c-.208.013-.339.045-.395.097-.056.052-.083.126-.083.222 0 .092.054.294.161.607l.734 2.282.668-2.101c.096-.3.145-.505.145-.614 0-.163-.035-.282-.106-.357-.071-.075-.208-.121-.412-.138v-.23h1.544v.23a.652.652 0 0 0-.406.204c-.1.111-.23.425-.389.943l-1.461 4.645h-.317zm8.63-8.17V57.7h.151c.481 0 .829-.169 1.045-.507.216-.338.354-.837.414-1.497h.208v4.441h-.208c-.045-.483-.139-.879-.282-1.188-.143-.308-.31-.516-.5-.622-.19-.106-.466-.159-.827-.159v2.392c0 .468.018.754.053.858.035.104.101.19.198.257s.253.1.468.1h.451c.705 0 1.271-.184 1.696-.552.425-.368.731-.927.916-1.678h.206l-.34 2.696h-6.523v-.23h.251c.219 0 .395-.044.529-.132a.56.56 0 0 0 .223-.301c.041-.1.061-.363.061-.789v-5.583c0-.384-.009-.62-.028-.708a.604.604 0 0 0-.206-.338c-.141-.117-.334-.175-.579-.175h-.251v-.23h6.316v2.508h-.208c-.108-.613-.259-1.052-.454-1.319a1.68 1.68 0 0 0-.827-.588c-.208-.075-.598-.112-1.169-.112h-.784zm7.008 2.149v.754c.268-.323.524-.559.77-.706.245-.147.509-.221.792-.221.338 0 .619.105.842.316.223.211.372.472.446.785.06.238.089.695.089 1.37v2.278c0 .453.036.735.108.846.072.111.223.181.452.211v.216h-2.637v-.216a.545.545 0 0 0 .427-.277c.06-.105.09-.365.09-.78v-2.601c0-.479-.017-.782-.05-.907a.561.561 0 0 0-.17-.291.397.397 0 0 0-.265-.103c-.32 0-.618.254-.894.762v3.14c0 .44.036.719.11.836.073.117.209.191.408.22v.216h-2.637v-.216c.218-.025.374-.105.466-.239.063-.092.094-.365.094-.817v-3.305c0-.443-.036-.72-.108-.828-.072-.109-.223-.18-.452-.213v-.23h2.119zm7.553.072h1.75v.69h-.993c.182.204.308.389.378.555a1.9 1.9 0 0 1 .134.705c0 .416-.103.777-.309 1.083a2.1 2.1 0 0 1-.84.718c-.354.173-.668.259-.943.259-.022 0-.245-.01-.667-.031a.547.547 0 0 0-.42.184.627.627 0 0 0-.17.44c0 .15.051.273.153.368.102.096.268.144.498.144l.963-.013c.779 0 1.315.096 1.608.288.419.267.629.678.629 1.233 0 .354-.097.677-.29.967-.193.29-.447.504-.763.641-.479.204-1.03.307-1.653.307-.468 0-.894-.051-1.28-.153-.386-.102-.663-.244-.829-.426-.167-.182-.25-.373-.25-.573 0-.192.064-.364.192-.517.128-.152.366-.281.714-.385-.48-.267-.719-.637-.719-1.111 0-.287.098-.566.294-.837.196-.271.507-.506.933-.706-.498-.204-.858-.473-1.081-.806a2.028 2.028 0 0 1-.334-1.156c0-.57.208-1.065.623-1.483.415-.419.95-.628 1.603-.628a2.59 2.59 0 0 1 1.069.243zm-1.29 6.632c-.379 0-.63.035-.752.107-.212.13-.318.305-.318.527 0 .213.11.406.329.58.219.173.631.26 1.237.26.516 0 .922-.077 1.217-.232.295-.155.443-.372.443-.652a.41.41 0 0 0-.084-.263c-.1-.125-.252-.211-.454-.257-.202-.047-.741-.07-1.618-.07zm.325-6.489c-.216 0-.398.122-.547.366-.149.244-.223.749-.223 1.516 0 .621.073 1.047.22 1.278.147.231.321.347.522.347.223 0 .409-.115.558-.344.149-.229.223-.675.223-1.338 0-.746-.084-1.254-.251-1.525a.555.555 0 0 0-.502-.3zm5.357-2.852v7.272c0 .417.043.684.129.8.086.116.254.182.504.199v.216h-2.817v-.216c.231-.008.402-.084.514-.228.074-.097.112-.354.112-.771V54.97c0-.41-.043-.672-.128-.787s-.251-.181-.497-.197v-.23h2.183zm3.998 7.624c-.635.628-1.204.941-1.709.941a.954.954 0 0 1-.741-.328c-.197-.219-.295-.493-.295-.822 0-.446.171-.847.512-1.203.342-.356 1.086-.83 2.233-1.422v-.588c0-.442-.021-.72-.064-.834a.648.648 0 0 0-.242-.3.672.672 0 0 0-.401-.128.945.945 0 0 0-.595.181c-.096.075-.144.163-.144.263 0 .088.052.196.156.325.141.179.211.352.211.519a.736.736 0 0 1-.203.522.694.694 0 0 1-.531.216.793.793 0 0 1-.587-.238.761.761 0 0 1-.236-.556c0-.3.106-.587.317-.86.211-.273.506-.482.885-.628a3.244 3.244 0 0 1 1.179-.219c.493 0 .884.118 1.171.353.287.236.474.491.559.766.052.175.078.577.078 1.207v2.27c0 .267.009.435.028.503.018.069.046.12.083.153.037.033.079.05.127.05.096 0 .193-.077.293-.233l.167.151c-.185.308-.377.531-.575.67a1.147 1.147 0 0 1-.675.209c-.296 0-.528-.078-.694-.234-.168-.155-.269-.391-.307-.706zm0-.46v-1.955c-.45.296-.785.613-1.004.95a1.247 1.247 0 0 0-.218.681c0 .192.061.361.184.506a.477.477 0 0 0 .39.169c.187.001.403-.117.648-.351zm4.949-4.527v.754c.268-.323.524-.559.77-.706.245-.147.509-.221.792-.221.338 0 .619.105.842.316.223.211.372.472.446.785.06.238.089.695.089 1.37v2.278c0 .453.036.735.108.846.072.111.223.181.452.211v.216h-2.637v-.216a.545.545 0 0 0 .427-.277c.06-.105.09-.365.09-.78v-2.601c0-.479-.017-.782-.05-.907a.561.561 0 0 0-.17-.291.397.397 0 0 0-.265-.103c-.32 0-.618.254-.894.762v3.14c0 .44.036.719.11.836.073.117.209.191.408.22v.216h-2.637v-.216c.218-.025.374-.105.466-.239.063-.092.094-.365.094-.817v-3.305c0-.443-.036-.72-.108-.828-.072-.109-.223-.18-.452-.213v-.23h2.119zm9.267-2.637v6.733c0 .454.011.722.033.805a.514.514 0 0 0 .168.306c.082.067.226.108.432.125v.208l-2.192.481v-.926c-.263.359-.498.603-.703.732a1.287 1.287 0 0 1-.698.194c-.664 0-1.188-.333-1.574-1-.311-.542-.467-1.206-.467-1.994 0-.629.096-1.193.289-1.691.193-.498.457-.874.792-1.128s.696-.381 1.081-.381c.248 0 .469.054.662.163.193.109.399.299.617.57v-1.768c0-.446-.017-.716-.05-.807a.525.525 0 0 0-.199-.269c-.089-.058-.255-.088-.498-.088v-.266h2.307zm-1.56 3.973c-.274-.594-.609-.891-1.005-.891a.478.478 0 0 0-.339.125c-.137.129-.249.357-.336.682-.087.325-.13.824-.13 1.495 0 .738.048 1.284.144 1.639.096.354.228.611.394.769a.495.495 0 0 0 .35.119c.326 0 .633-.287.922-.862v-3.076zm-72.523-1.509c.452 0 .872.131 1.261.394.389.262.684.635.886 1.119.202.483.303 1.013.303 1.588 0 .829-.187 1.523-.561 2.081-.452.675-1.076 1.012-1.872 1.012-.781 0-1.383-.308-1.805-.925-.422-.617-.633-1.331-.633-2.144 0-.838.216-1.568.647-2.191.43-.622 1.022-.934 1.774-.934zm.025.446c-.189 0-.351.08-.486.241s-.224.477-.266.95c-.043.473-.064 1.13-.064 1.971 0 .446.026.862.078 1.25.041.296.128.521.261.675.133.154.285.231.455.231a.585.585 0 0 0 .416-.156c.144-.142.24-.339.289-.594.074-.396.111-1.195.111-2.399 0-.708-.035-1.194-.106-1.459-.07-.265-.174-.457-.311-.578a.537.537 0 0 0-.377-.132zm5.486.338l.009 4.06c0 .397.037.646.111.748.119.156.338.228.657.215v.216h-3.061v-.216c.233-.004.398-.035.496-.092a.45.45 0 0 0 .203-.238c.037-.101.055-.312.055-.633l-.005-4.06h-.749v-.611h.748l-.001-.432v-.294c0-.601.195-1.103.586-1.503.39-.401.919-.601 1.585-.601.455 0 .793.096 1.013.287.22.191.33.404.33.637 0 .187-.069.35-.206.487a.738.738 0 0 1-.545.206.623.623 0 0 1-.459-.168.517.517 0 0 1-.17-.374 1.5 1.5 0 0 1 .034-.23.966.966 0 0 0 .023-.199c0-.087-.022-.151-.067-.193a.287.287 0 0 0-.217-.093c-.107 0-.197.05-.269.15-.072.1-.108.261-.108.482l.002 1.095.002.745h.779v.611h-.776z" fill="#150186"/><path fill-rule="evenodd" clip-rule="evenodd" fill="#FFF" d="M176.393 56.396s.374.093 1.013.877l1.013-.086.287-.553s.237-.525.216-.525c-.022 0-1.423.115-1.423.115l-.869.036-.237.136z"/><path fill-rule="evenodd" clip-rule="evenodd" fill="#150186" d="M176.662 56.487s.657-1.085 1.423-.88c.331.129.445.489.417.798-.029.309-.266.568-.596.503 0 0-.234-.068-.295-.345-.083-.259-.223-.259-.273-.198-.05.061-.305.359-.377.456l-.341-.277.042-.057z"/><path fill-rule="evenodd" clip-rule="evenodd" fill="#5F5F00" d="M198.836 40.605c-16.229 6.193-28.98 6.775-29.643 6.801-3.831.412-7.904.633-12.128.633-22.477 0-40.698-6.28-40.698-14.026 0-7.746 18.221-14.026 40.698-14.026 19.072 0 35.079 4.521 39.491 10.623.232.329.533.8.771 1.324l.023.073c.081.196.151.394.209.592.603 1.515 1.163 1.375 1.163 1.375.69 0 .766-.575.766-.575l.017-1.218.328-11.879c.075-2.29-.078-3.6-.242-4.329a2.357 2.357 0 0 0-.103-.439 1.291 1.291 0 0 0-.131-.286c-.043-.086-.071-.119-.071-.119l-.028.001-.023-.018.002-.012-.018.001c-.23-.144-.485.149-.689.494a2.22 2.22 0 0 0-.211.404c-.107.23-.174.411-.174.411-.005.03-.012.059-.018.089a8.003 8.003 0 0 0-.204.669c-.187.471-.447.91-.707 1.284-.86 1.116-2.364 2.502-3.775 3.042-.32.094-.645.169-.971.228-2.19.188-7.067-.625-7.067-.625l.002.007-.113-.025c-8.216-1.776-18.203-2.818-28.975-2.818-28.033 0-50.758 7.052-50.758 15.75s22.725 15.75 50.758 15.75c18.822 0 35.251-3.179 44.016-7.901l-1.497-1.255z"/></svg>